<svg xmlns="http://www.w3.org/2000/svg" xmlns:xlink="http://www.w3.org/1999/xlink" width="20.44" height="20.449" xmlns:v="https://vecta.io/nano"><defs><clipPath id="A"><path d="M20.553,9.844a10.216,10.216,0,1,1-20.4,1.084,6.879,6.879,0,0,1,0-1.084,10.215,10.215,0,0,1,20.4,0Z" transform="translate(5507.433 -11762.177)" fill="#fff"/></clipPath><path id="B" d="M5515.758-11748.939l.049.192-.167-.106-.167.106.049-.192-.152-.126.2-.013.073-.184.073.184.2.013z"/><path id="C" d="M5519.063-11752.087l.035.138-.12-.076-.12.076.035-.138-.11-.091.142-.009.053-.132.053.132.142.009z"/><path id="D" d="M5515.889-11751.563l.041.162-.141-.089-.141.089.041-.162-.129-.107.167-.011.062-.155.062.155.167.011z"/><path id="E" d="M5519.812-11748.745l.035.138-.12-.076-.12.076.035-.138-.11-.091.142-.009.053-.132.052.132.142.009z"/></defs><g transform="translate(-5507.561 11762.023)" clip-path="url(#A)"><g fill="#fff" fill-rule="evenodd"><use xlink:href="#B"/><path d="M5514.166-11750.479l.049.192-.167-.106-.167.106.049-.192-.152-.126.2-.013.073-.184.073.184.2.013zm-.42-2.12l.049.192-.167-.106-.167.106.049-.192-.152-.126.2-.013.073-.184.073.184.2.013z"/></g><path d="M5532.371-11762.024v20.423h-29.176v-20.423z" fill="#009c37" fill-rule="evenodd"/><path d="M5529.889-11751.812l-12.108 7.732-12.108-7.732 12.108-7.732z" fill="#fee000"/><path d="M5517.78-11756.918c2.065 0 3.927 1.244 4.717 3.152s.353 4.104-1.107 5.564-3.656 1.897-5.564 1.107-3.152-2.652-3.152-4.717c0-2.82 2.286-5.106 5.106-5.106z" fill="#027"/><g fill="#fff" fill-rule="evenodd"><path d="M5519.46-11753.545l.049.192-.167-.106-.167.106.049-.192-.152-.126.2-.013.073-.184.073.184.2.013z"/><use xlink:href="#C"/><path d="M5513.747-11752.599l.049.192-.167-.106-.167.106.049-.192-.152-.126.2-.013.073-.184.073.184.2.013z"/><use xlink:href="#D"/><path d="M5514.574-11750.834l.026.1-.09-.057-.09.057.026-.1-.082-.068.106-.007.039-.1.039.1.106.007zm-.408.355l.049.192-.167-.106-.167.106.049-.192-.152-.126.2-.013.073-.184.073.184.2.013zm-.553.434l.041.162-.141-.089-.141.089.041-.162-.129-.107.167-.011.062-.155.062.155.167.011zm1.569.04l.041.162-.141-.089-.141.089.041-.162-.129-.107.167-.011.062-.153.062.155.167.011zm-.201.532l.035.138-.12-.076-.12.076.035-.138-.11-.091.142-.009.053-.132.053.132.142.009z"/><use xlink:href="#B"/><path d="M5517.852-11747.737l.019.074-.064-.041-.064.041.019-.074-.059-.048h.076l.028-.071.028.071h.076zm.067-3.14l.041.162-.141-.089-.141.089.041-.162-.129-.107.167-.011.062-.155.062.155.167.011zm.467.437l.041.162-.141-.089-.141.089.041-.162-.129-.107.167-.011.062-.155.062.155.167.011zm-.838.317l.026.1-.09-.057-.09.057.026-.1-.082-.068.106-.007.039-.1.039.1.106.007zm-.353-.264l.035.138-.12-.076-.12.076.035-.138-.11-.091.142-.009.053-.132.053.132.142.009zm.713 1.005l.049.192-.167-.106-.167.106.049-.192-.152-.126.2-.013.073-.184.073.184.2.013zm1.019.508l.035.138-.12-.076-.12.076.035-.138-.11-.091.142-.009.053-.132.053.132.142.009zm.434.635l.041.162-.141-.089-.141.089.041-.162-.129-.107.167-.011.062-.155.062.155.167.011z"/><use xlink:href="#E"/><path d="M5520.42-11747.831l.035.138-.12-.076-.12.076.035-.138-.11-.091.142-.009.053-.132.052.132.142.009zm.022-.532l.041.162-.141-.089-.141.089.041-.162-.129-.107.167-.011.062-.155.062.155.167.011zm-.027-.5l.035.138-.12-.076-.12.076.035-.138-.11-.091.142-.009.053-.132.053.132.142.009zm.502.004l.035.138-.12-.076-.12.076.035-.138-.11-.091.142-.009.053-.132.052.132.142.009zm.492-.21l.041.162-.141-.089-.141.089.041-.162-.129-.107.167-.011.062-.155.062.155.167.011zm.241-.406l.041.162-.141-.089-.141.089.041-.162-.129-.107.167-.011.062-.155.062.155.167.011zm-.184-.495l.049.192-.167-.106-.167.106.049-.192-.152-.126.2-.013.073-.184.073.184.2.013zm.714.033l.035.138-.12-.076-.12.076.035-.138-.11-.091.142-.009.053-.132.053.132.142.009zm-7.449-3.45a12.24 12.24 0 0 0-1.85.14 5.05 5.05 0 0 1 .277-.731 12.88 12.88 0 0 1 9.686 2.781 5.11 5.11 0 0 1-.155.765 12.17 12.17 0 0 0-7.958-2.955z"/></g><path d="M5513.417-11753.651c.001.041.016.081.043.113s.063.039.1.033.069-.019.09-.049a.22.22 0 0 0-.02-.232c-.026-.027-.063-.039-.1-.033s-.069.019-.089.049c-.021.036-.03.078-.024.119zm-.1.008c-.009-.063.007-.127.045-.179.083-.094.225-.106.323-.028.089.095.101.239.03.348-.083.094-.225.106-.323.028-.044-.045-.069-.106-.07-.169zm.74-.085h.11a.08.08 0 0 0 .052-.016c.012-.012.017-.029.015-.046s-.006-.033-.018-.044-.031-.016-.049-.014h-.114zm-.085.259l-.015-.455.22-.007c.039-.004.079.005.111.028s.042.062.039.1c.002.024-.003.049-.015.07s-.028.033-.049.04c.018.005.033.016.043.031.011.021.017.044.017.067v.054c0 .027.008.043.019.049v.014h-.1c-.004-.007-.006-.015-.008-.023a.22.22 0 0 1 0-.033v-.048c.001-.02-.006-.04-.018-.056-.015-.011-.034-.016-.052-.013h-.1l.006.177h-.094zm.671-.1h.075c.035.004.07-.008.095-.032.023-.032.034-.071.031-.11.004-.039-.005-.079-.025-.113a.1.1 0 0 0-.084-.037h-.086zm-.093.08l.009-.455h.178a.2.2 0 0 1 .155.059c.037.049.054.111.048.172a.3.3 0 0 1-.021.11c-.012.03-.032.055-.057.075a.17.17 0 0 1-.062.03.39.39 0 0 1-.1.008zm.577.01l.024-.454.33.018v.079l-.238-.013-.005.1.217.012v.078l-.217-.012-.006.117.249.013v.084l-.341-.018zm.535.032l.048-.452.138.015.053.354.125-.335.138.015-.048.452-.087-.009.039-.365-.131.355-.1-.01-.054-.375-.039.365zm1.205.155l.1-.445.323.069-.017.077-.233-.05-.02.095.213.046-.016.076-.213-.046-.025.114.244.052-.018.082zm1.2.028l.087.024c.018.007.038.007.056 0s.026-.026.029-.044.007-.035 0-.052-.025-.026-.043-.029l-.092-.025-.034.127zm-.022.079l-.042.156-.09-.024.118-.439.2.053c.041.006.077.03.1.064.018.036.02.077.007.115-.007.04-.029.077-.063.1s-.073.022-.109.01zm.547.071l.105.032c.018.007.037.007.055 0s.026-.022.029-.039.007-.033 0-.048a.07.07 0 0 0-.042-.029l-.109-.034zm-.165.217l.134-.435.211.065c.04.008.076.03.1.063.016.031.018.067.006.1-.006.023-.019.045-.037.061s-.037.021-.059.021c.015.01.026.025.031.043.003.023.001.047-.006.069l-.014.052h0c-.007.026-.007.044 0 .052v.013l-.1-.03c-.001-.008-.001-.017 0-.025a.21.21 0 0 1 .007-.033l.013-.046c.007-.019.007-.04 0-.059s-.027-.026-.045-.029l-.095-.029-.052.169-.089-.028zm.693 0c-.017.038-.02.081-.009.121.012.034.039.06.073.071s.069.011.1-.007a.22.22 0 0 0 .08-.219c-.012-.034-.039-.06-.074-.071s-.07-.011-.1.007c-.03.025-.052.058-.061.096zm-.09-.033c.019-.061.06-.113.116-.144.114-.047.244.001.3.111.04.124-.009.259-.12.328-.114.047-.244-.001-.3-.111-.024-.059-.024-.126 0-.185zm.841.534c-.022.014-.047.022-.073.024s-.052-.004-.076-.015a.2.2 0 0 1-.116-.121c-.032-.125.024-.256.136-.32a.2.2 0 0 1 .17 0c.046.017.086.05.112.092s.028.086.015.129l-.088-.037c.004-.022 0-.044-.011-.063a.12.12 0 0 0-.057-.044c-.031-.017-.069-.017-.1 0-.035.022-.061.055-.075.094a.18.18 0 0 0-.014.12c.01.035.035.062.069.075.025.012.053.013.079.005s.048-.028.062-.052l-.095-.04.031-.072.173.074-.1.226-.058-.025zm.432-.012l.1.048a.08.08 0 0 0 .054.01c.016-.006.029-.018.035-.034s.01-.032.005-.048a.07.07 0 0 0-.037-.035l-.1-.05zm-.2.189l.2-.408.2.1c.037.014.067.042.085.077.011.033.007.07-.011.1-.01.022-.026.041-.046.055s-.041.016-.062.012c.013.012.022.029.024.047 0 .023-.006.046-.017.067l-.022.049h0c-.012.025-.014.042-.006.052l-.006.012-.092-.045c-.001-.008-.001-.016 0-.024s.007-.022.012-.032l.02-.044c.01-.017.014-.038.011-.058s-.022-.03-.04-.036l-.089-.044-.078.159-.084-.041zm.508.261l.221-.4.289.161-.038.069-.208-.116-.047.085.19.106-.038.068-.19-.106-.057.1.218.121-.041.073zm.513.141l.079.048c-.009.02-.009.043 0 .063s.03.041.053.053c.018.012.039.019.06.019s.032-.011.04-.026q.021-.035-.067-.12h0l-.007-.007a.3.3 0 0 1-.062-.074.1.1 0 0 1-.01-.055c.002-.021.01-.041.021-.059.018-.035.052-.059.091-.064.046-.003.092.01.13.037s.071.057.087.1.007.081-.014.115l-.077-.046c.008-.018.008-.038 0-.056s-.027-.038-.047-.048a.1.1 0 0 0-.056-.017c-.016.001-.03.011-.038.025q-.019.031.038.086l.024.024.05.053c.009.01.016.021.023.032a.1.1 0 0 1 .014.056c-.002.021-.008.041-.02.059-.02.038-.057.064-.1.07a.25.25 0 0 1-.23-.14c-.011-.046.001-.094.032-.13zm.479.3l.076.052c-.011.019-.013.042-.006.063s.028.043.05.056.038.021.059.022.032-.009.041-.024q.023-.034-.06-.123h0l-.007-.007c-.023-.022-.043-.048-.058-.077a.1.1 0 0 1-.007-.055c.004-.021.012-.041.024-.058.02-.034.055-.056.094-.059.046 0 .091.015.128.044.038.023.067.058.082.1s.003.081-.02.115l-.074-.05c.011-.017.013-.037.007-.056s-.024-.039-.044-.051a.1.1 0 0 0-.055-.02c-.016.001-.031.009-.039.023-.014.02 0 .049.034.088l.023.025q.034.038.047.056c.008.01.015.021.021.033a.1.1 0 0 1 .012.057c-.003.021-.011.041-.023.058-.022.036-.059.059-.1.064a.25.25 0 0 1-.223-.152c-.012-.042-.004-.087.02-.123zm.578.307c-.027.032-.043.071-.044.113.001.036.019.069.049.089s.065.032.1.024a.22.22 0 0 0 .141-.186c-.001-.036-.02-.07-.05-.09s-.065-.032-.1-.023c-.034.015-.063.04-.082.071zm-.076-.058c.036-.052.091-.088.153-.1.126-.014.241.074.259.2.002.131-.085.246-.211.279-.126.014-.241-.074-.259-.2-.001-.066.025-.13.072-.177z" fill="#009c37" fill-rule="evenodd"/></g></svg>