<svg xmlns="http://www.w3.org/2000/svg" width="20.447" height="20.976" xmlns:v="https://vecta.io/nano"><path d="M20.433 10.216c.261 3.684-1.486 7.222-4.57 9.254s-7.024 2.241-10.306.548S.163 14.991.033 11.3a6.88 6.88 0 0 1 0-1.084C.327 4.797 4.806.554 10.233.554s9.906 4.243 10.2 9.662z" fill="#fff"/><path d="M2.113 3.995C1.3 5.049.699 6.251.343 7.534h5.309zm17.949 3.538c-.344-1.287-.946-2.491-1.77-3.539l-3.539 3.539zM.372 12.87c.344 1.287.946 2.491 1.77 3.539L5.68 12.87zM16.438 2.111A10.32 10.32 0 0 0 12.899.342v5.309zM3.996 18.318a9.96 9.96 0 0 0 3.567 1.77v-5.306zM7.563.342a9.96 9.96 0 0 0-3.567 1.769L7.563 5.65zm5.308 19.719a9.83 9.83 0 0 0 3.539-1.771l-3.539-3.537zm1.883-7.191l3.539 3.539a10.32 10.32 0 0 0 1.769-3.539z" fill="#012169"/><path d="M20.347 8.875h-8.789V.085a10.34 10.34 0 0 0-2.654 0v8.79H.086a10.34 10.34 0 0 0 0 2.654h8.787v8.789a10.34 10.34 0 0 0 2.654 0v-8.79h8.789a9.19 9.19 0 0 0 .029-2.654zm-7.476 3.995l4.566 4.565.6-.657-3.91-3.908zm-5.307 0l-4.567 4.565.655.6 3.912-3.91zm-.001-5.336L2.997 2.968l-.6.656 3.91 3.91zm5.308-.001l4.566-4.566-.656-.6-3.91 3.91z" fill="#d80027"/></svg>