<svg xmlns="http://www.w3.org/2000/svg" xmlns:xlink="http://www.w3.org/1999/xlink" width="20.508" height="20.508" xmlns:v="https://vecta.io/nano"><defs><clipPath id="A"><circle cx="10.07" cy="10.255" r="10.254" fill="none"/></clipPath><path id="B" d="M-5.61-.191h39.329v1.592H-5.61z"/><path id="C" d="M-4.3.286l-.143.44h-.463l.375.272-.143.44.375-.272.375.272-.143-.44.375-.272h-.463z"/><path id="D" d="M-4.3 2.516l-.143.441h-.463l.375.272-.143.441.375-.273.375.273-.143-.441.375-.272h-.463z"/><path id="E" d="M-4.3 4.745l-.143.44h-.463l.375.272-.143.441.375-.272.375.272-.143-.441.375-.272h-.463z"/><path id="F" d="M-4.157 9.639l-.143-.44-.143.44h-.463l.375.272-.143.441.375-.272.375.272-.143-.441.375-.272z"/><path id="G" d="M-.366 3.63l-.143.44h-.463l.375.272-.143.44.375-.272.375.272-.143-.44.375-.272h-.464z"/><path id="H" d="M-2.846 8.529l-.143-.44-.143.44h-.463l.375.272-.143.44.375-.272.375.272-.143-.44.375-.272z"/></defs><g transform="translate(.184 -.001)" clip-path="url(#A)"><g fill="#b01820"><use xlink:href="#B"/><path d="M-5.61 18.916h39.329v1.592H-5.61zm0-3.184h39.329v1.592H-5.61zm0-3.185h39.329v1.592H-5.61zm0-3.184h39.329v1.592H-5.61zm0-3.185h39.329V7.77H-5.61zm0-3.184h39.329v1.592H-5.61z"/></g><g fill="#fff"><path d="M-5.61 17.324h39.329v1.592H-5.61zm0-3.185h39.329v1.592H-5.61zm0-3.184h39.329v1.592H-5.61zm0-3.185h39.329v1.592H-5.61zm0-3.184h39.329v1.592H-5.61zm0-3.185h39.329v1.592H-5.61z"/></g><path d="M-5.61-.191h15.732v11.146H-5.61z" fill="#002a70"/><g fill="#fff"><use xlink:href="#C"/><path d="M-1.677.286l-.143.44h-.463l.375.272-.143.44.375-.272.375.272-.143-.44.375-.272h-.463zm2.622 0l-.143.44H.339l.375.272-.143.44.375-.272.375.272-.143-.44.375-.272h-.464zm2.621 0l-.143.44H2.96l.375.272-.143.44.375-.272.375.272-.143-.44.375-.272h-.463zm2.623 0l-.143.44h-.463l.375.272-.144.44.375-.272.375.272-.143-.44.375-.272h-.463zM8.435 1.44l.375-.272.375.272-.143-.441.375-.272h-.463l-.143-.44-.143.44h-.463l.375.272z"/><use xlink:href="#D"/><path d="M-1.677 2.516l-.143.441h-.463l.375.272-.143.441.375-.273.375.273-.143-.441.375-.272h-.463zm2.622 0l-.143.441H.339l.375.272-.143.441.375-.273.375.273-.143-.441.375-.272h-.464zm2.621 0l-.143.441H2.96l.375.272-.143.441.375-.273.375.273-.143-.441.375-.272h-.463zm2.623 0l-.143.441h-.463l.375.272-.144.441.375-.273.375.273-.143-.441.375-.272h-.463zm2.621 0l-.143.441h-.463l.375.272-.143.441.375-.273.375.273-.143-.441.375-.272h-.463z"/><use xlink:href="#E"/><path d="M-1.677 4.745l-.143.44h-.463l.375.272-.143.441.375-.272.375.272-.143-.441.375-.272h-.463zm2.622 0l-.143.44H.339l.375.272-.143.441.375-.272.375.272-.143-.441.375-.272h-.464zm2.621 0l-.143.44H2.96l.375.272-.143.441.375-.272.375.272-.143-.441.375-.272h-.463zm2.623 0l-.143.44h-.463l.375.272-.144.441.375-.272.375.272-.143-.441.375-.272h-.463zm2.621 0l-.143.44h-.463l.375.272-.143.441.375-.272.375.272-.143-.441.375-.272h-.463zM-4.3 6.974l-.143.44h-.463l.375.272-.143.44.375-.272.375.272-.143-.44.375-.272h-.463zm2.623 0l-.143.44h-.463l.375.272-.143.44.375-.272.375.272-.143-.44.375-.272h-.463zm2.622 0l-.143.44H.339l.375.272-.143.44.375-.272.375.272-.143-.44.375-.272h-.464zm2.621 0l-.143.44H2.96l.375.272-.143.44.375-.272.375.272-.143-.44.375-.272h-.463zm2.623 0l-.143.44h-.463l.375.272-.144.44.375-.272.375.272-.143-.44.375-.272h-.463zm2.621 0l-.143.44h-.463l.375.272-.143.44.375-.272.375.272-.143-.44.375-.272h-.463z"/><use xlink:href="#F"/><path d="M-1.535 9.639l-.143-.44-.143.44h-.463l.375.272-.143.441.375-.272.375.272-.143-.441.375-.272zm2.623 0l-.143-.44-.143.44H.339l.375.272-.143.441.375-.272.375.272-.143-.441.375-.272zm2.621 0l-.143-.44-.143.44H2.96l.375.272-.143.441.375-.272.375.272-.143-.441.375-.272zm2.622 0l-.143-.44-.143.44h-.464l.375.272-.143.441.375-.272.375.272-.143-.441.375-.272zm2.622 0l-.143-.44-.143.44h-.463l.375.272-.143.441.375-.272.375.272-.143-.441.375-.272zM-2.988 1.401l-.143.441h-.463l.375.272-.143.441.375-.272.375.272-.143-.441.375-.272h-.463zm2.622 0l-.143.441h-.463l.375.272-.143.441.375-.272.375.272-.143-.441.375-.272h-.464zm2.621 0l-.143.441h-.463l.375.272-.143.441.375-.272.375.272-.143-.441.375-.272H2.4zm2.622 0l-.143.441h-.463l.375.272-.143.441.375-.272.375.272-.143-.441.375-.272h-.464zm2.623 0l-.143.441h-.463l.375.272-.143.441.375-.272.375.272-.143-.441.375-.272h-.463zM-2.988 3.63l-.143.44h-.463l.375.272-.143.44.375-.272.375.272-.143-.44.375-.272h-.463z"/><use xlink:href="#G"/><path d="M2.255 3.63l-.143.44h-.463l.375.272-.143.44.375-.272.375.272-.143-.44.375-.272H2.4zm2.622 0l-.143.44h-.463l.375.272-.143.44.375-.272.375.272-.143-.44.375-.272h-.464zm2.623 0l-.143.44h-.463l.375.272-.143.44.375-.272.375.272-.143-.44.375-.272h-.463zM-2.988 5.859l-.143.44h-.463l.375.272-.143.44.375-.272.375.272-.143-.44.375-.272h-.463zm2.622 0l-.143.44h-.463l.375.272-.143.44.375-.272.375.272-.143-.44.375-.272h-.464zm2.621 0l-.143.44h-.463l.375.272-.143.44.375-.272.375.272-.143-.44.375-.272H2.4zm2.622 0l-.143.44h-.463l.375.272-.143.44.375-.272.375.272-.143-.44.375-.272h-.464zm2.623 0l-.143.44h-.463l.375.272-.143.44.375-.272.375.272-.143-.44.375-.272h-.463z"/><use xlink:href="#H"/><path d="M-.223 8.529l-.143-.44-.144.44h-.463l.375.272-.143.44.375-.272.375.272-.143-.44.375-.272zm2.621 0l-.143-.44-.143.44h-.463l.375.272-.143.44.375-.272.375.272-.143-.44.375-.272zm2.622 0l-.143-.44-.143.44h-.463l.375.272-.143.44.375-.272.375.272-.143-.44.375-.272zm2.622 0l-.143-.44-.143.44h-.463l.375.272-.143.44.375-.272.375.272-.143-.44.375-.272z"/></g></g></svg>